<?xml version="1.0" standalone="no"?>
<!DOCTYPE svg PUBLIC "-//W3C//DTD SVG 20010904//EN"
 "http://www.w3.org/TR/2001/REC-SVG-20010904/DTD/svg10.dtd">
<svg version="1.0" xmlns="http://www.w3.org/2000/svg"
 width="360.000000pt" height="360.000000pt" viewBox="0 0 360.000000 360.000000"
 preserveAspectRatio="xMidYMid meet">
<metadata>
Created by potrace 1.14, written by Peter Selinger 2001-2017
</metadata>
<g transform="translate(0.000000,360.000000) scale(0.100000,-0.100000)"
fill="#000000" stroke="none">
<path d="M1685 3449 c-111 -18 -206 -68 -278 -149 -23 -26 -83 -119 -134 -206
-50 -87 -344 -597 -652 -1132 -404 -700 -569 -995 -587 -1049 -31 -91 -38
-209 -18 -303 35 -170 164 -339 314 -412 125 -61 184 -68 562 -68 381 0 425 6
556 71 118 58 190 131 282 289 40 69 81 140 92 158 l20 32 -119 0 -118 0 -45
-82 c-83 -150 -178 -229 -308 -257 -67 -14 -649 -15 -723 -1 -206 39 -351 243
-319 446 6 35 16 76 22 91 7 16 199 352 427 748 228 396 516 898 641 1115 127
220 244 412 265 434 52 53 111 77 191 77 111 0 192 -50 247 -155 31 -58 31
-174 -1 -233 -12 -23 -172 -302 -355 -620 -184 -318 -380 -658 -437 -757 -105
-182 -130 -241 -130 -306 0 -107 70 -219 167 -266 l58 -29 340 -6 c322 -6 345
-8 436 -32 254 -67 464 -219 611 -443 36 -55 85 -118 109 -142 59 -58 168
-111 256 -124 195 -30 398 75 487 252 61 124 71 251 29 370 -27 75 -452 809
-505 871 -53 63 -166 139 -249 169 -46 16 -95 24 -174 27 -132 5 -216 -14
-321 -72 -118 -66 -170 -130 -335 -415 l-148 -255 -245 -3 -245 -2 -33 29
c-65 58 -81 23 412 876 244 424 455 796 468 829 13 33 26 89 29 130 23 303
-243 551 -542 505z m1108 -1857 c43 -21 82 -51 112 -85 55 -61 448 -734 478
-817 45 -128 -23 -280 -151 -336 -58 -26 -166 -23 -222 5 -64 33 -85 54 -154
161 -176 269 -462 468 -769 535 l-28 6 19 32 c11 18 63 109 117 202 101 177
151 239 223 282 71 42 119 53 218 50 79 -2 100 -7 157 -35z"/>
</g>
</svg>
